<?xml version="1.0" encoding="UTF-8" standalone="no"?>
<svg xmlns="http://www.w3.org/2000/svg"
     xmlns:svg="http://www.w3.org/2000/svg"
     version="1.1"
     width="0.983333in" height="1.33333in"
     viewBox="0 0 295 400">
  <path id="Unnamed"
        fill="none" stroke="black" stroke-width="1"
        d="M 56.05,387.09
           C 56.05,387.09 228.20,407.72 290.52,362.25
             287.73,396.14 185.09,397.53 152.38,397.84
             64.54,397.77 56.05,387.09 56.05,387.09 Z
           M 62.58,339.52
           C 62.58,339.52 41.34,334.75 11.92,350.35
             -9.77,365.18 12.71,368.74 18.73,370.45
             49.92,375.96 177.68,391.66 258.15,361.82
             286.76,349.80 266.44,341.57 267.35,342.20
             269.40,346.75 272.43,351.57 259.37,356.00
             179.06,379.31 40.42,368.76 27.63,357.48
             18.42,347.71 62.58,339.52 62.58,339.52 Z
           M 93.49,310.76
           C 91.29,311.16 77.11,313.50 76.40,322.22
             76.27,338.90 154.12,354.12 207.66,328.44
             194.45,321.42 207.44,328.30 187.57,318.01
             166.49,324.83 73.71,327.88 93.49,310.76 Z
           M 84.56,267.55
           C 84.56,267.55 64.63,272.72 64.86,281.47
             64.57,299.58 160.78,305.02 213.44,286.48
             208.27,284.15 200.75,278.50 199.84,277.09
             172.59,284.12 82.44,289.24 80.02,275.73
             79.31,272.55 84.56,267.55 84.56,267.55 Z
           M 98.84,222.93
           C 75.45,221.77 -20.03,247.43 73.98,255.20
             133.82,261.05 186.00,251.57 212.86,246.04
             225.34,238.77 227.19,237.52 227.16,237.43
             178.59,249.93 -21.09,255.69 98.84,222.93 Z
           M 238.45,225.36
           C 278.16,213.38 297.83,261.47 229.39,294.79
             339.22,263.71 276.08,198.01 238.45,225.36 Z" />
</svg>
